<svg width="703" height="312" viewBox="0 0 703 312" fill="none" xmlns="http://www.w3.org/2000/svg">
<path d="M119.176 19.0158C119.176 21.5512 118.577 23.7698 117.38 25.6713C116.183 27.5025 114.67 28.9111 112.839 29.8971C111.079 30.8126 109.354 31.2704 107.664 31.2704C106.045 31.2704 104.496 30.8831 103.018 30.1084C101.609 29.2632 100.694 28.3124 100.272 27.256L74.6088 70.1472C72.6374 73.4573 70.8421 75.8167 69.2227 77.2253C67.6738 78.5634 65.8784 79.2325 63.8367 79.2325C59.1195 79.2325 56.4441 76.2041 55.8104 70.1472L52.4309 39.088L31.0979 70.1472C28.6337 73.7391 26.6271 76.1688 25.0782 77.4366C23.5997 78.6339 21.8747 79.2325 19.9034 79.2325C15.6086 79.2325 13.0036 75.8519 12.0883 69.0907L5.32934 21.34C5.11812 19.9314 4.69569 18.8045 4.06203 17.9594C3.49878 17.1142 2.75952 16.3043 1.84424 15.5296C1.21059 14.9661 0.752953 14.5084 0.471329 14.1562C0.189705 13.7336 0.0488929 13.2758 0.0488929 12.7828C-0.303136 10.177 1.24579 8.87405 4.69568 8.87405H30.9923C32.6116 8.87405 33.8085 9.22619 34.583 9.93048C35.4279 10.5643 35.8151 11.4447 35.7447 12.5716C35.7447 13.135 35.5687 13.6984 35.2167 14.2619C34.935 14.7549 34.6182 15.2126 34.2662 15.6352C33.4917 16.4804 32.9285 17.2903 32.5764 18.065C32.2244 18.8397 32.1188 19.861 32.2596 21.1287L35.0054 46.5887L50.8468 23.8754L50.53 21.34C50.3891 20.0018 50.0371 18.9102 49.4739 18.065C48.9106 17.2199 48.1362 16.4099 47.1505 15.6352C46.4464 15.0014 45.9536 14.5084 45.6719 14.1562C45.3903 13.7336 45.2495 13.2758 45.2495 12.7828C44.8975 10.177 46.4464 8.87405 49.8963 8.87405H76.2985C77.9179 8.87405 79.15 9.22619 79.9948 9.93048C80.8397 10.5643 81.2269 11.4447 81.1565 12.5716C81.1565 13.4871 80.6637 14.5084 79.678 15.6352C78.974 16.4804 78.4459 17.2903 78.0939 18.065C77.7419 18.8397 77.601 19.861 77.6714 21.1287L78.9387 44.1589L93.196 19.2271C95.5194 15.2126 97.7723 12.4307 99.9549 10.8813C102.138 9.2614 104.989 8.45147 108.509 8.45147C111.678 8.45147 114.247 9.40226 116.219 11.3038C118.19 13.2054 119.176 15.7761 119.176 19.0158Z" fill="#92B8F0"/>
<path d="M176.369 64.6537C176.228 64.9354 176.158 65.358 176.158 65.9214C176.158 66.4144 176.263 66.8018 176.474 67.0835C176.756 67.3652 177.108 67.5061 177.53 67.5061C178.375 67.5061 179.079 67.154 179.643 66.4497C180.276 65.6749 180.699 65.2876 180.91 65.2876C181.262 65.2876 181.544 65.5341 181.755 66.0271C181.966 66.4497 182.072 66.9779 182.072 67.6117C182.142 69.6542 181.473 71.6614 180.065 73.6334C178.657 75.535 176.58 77.1196 173.834 78.3874C171.159 79.5846 167.92 80.1833 164.118 80.1833C159.471 80.1833 155.775 79.1269 153.029 77.014C150.283 74.8307 148.875 71.9431 148.805 68.3512C148.805 65.7454 149.438 62.8226 150.706 59.5828L156.514 44.3702C156.866 43.4546 157.042 42.7151 157.042 42.1517C157.042 41.2361 156.725 40.5318 156.092 40.0388C155.529 39.4754 154.825 39.1937 153.98 39.1937C152.642 39.1937 151.269 39.8275 149.861 41.0953C148.523 42.2925 147.432 44.2646 146.587 47.0113V46.8L139.934 68.2456C139.722 69.0907 139.617 69.8302 139.617 70.4641C139.617 71.3797 139.793 72.1192 140.145 72.6826C140.497 73.1756 140.99 73.6686 141.623 74.1616C142.116 74.6546 142.468 75.0772 142.679 75.4293C142.891 75.7111 142.926 76.0984 142.785 76.5914C142.433 77.507 141.729 78.1761 140.673 78.5986C139.617 79.0212 137.998 79.2325 135.815 79.2325H111.736C109.906 79.2325 108.568 78.9508 107.723 78.3874C106.878 77.7535 106.596 76.9436 106.878 75.9576C107.16 75.1124 107.899 74.3729 109.096 73.739C110.152 73.1756 111.032 72.5065 111.736 71.7318C112.44 70.9571 113.039 69.7246 113.531 68.0343L129.584 15.3183C129.795 14.6844 129.901 14.1562 129.901 13.7336C129.901 12.9589 129.69 12.3251 129.267 11.8321C128.915 11.3391 128.422 10.8461 127.789 10.3531C127.085 9.78962 126.557 9.29662 126.205 8.87405C125.923 8.45147 125.888 7.88804 126.099 7.18375C126.521 5.56388 128.739 4.15531 132.752 2.95801C136.765 1.76072 140.955 1.16208 145.32 1.16208C149.403 1.16208 152.396 1.9368 154.296 3.48624C156.268 5.03567 157.254 7.14853 157.254 9.82484C157.254 11.3743 157.007 12.8885 156.514 14.3675L150.811 32.9607C153.557 29.3688 156.444 26.8686 159.471 25.46C162.569 24.0515 165.913 23.3472 169.504 23.3472C173.799 23.3472 177.249 24.6501 179.854 27.256C182.529 29.8619 183.867 33.2424 183.867 37.3977C183.867 39.581 183.515 41.7291 182.811 43.842L176.369 64.6537Z" fill="#92B8F0"/>
<path d="M218.608 23.3472C222.692 23.3472 225.684 24.1219 227.585 25.6713C229.486 27.2208 230.436 29.3336 230.436 32.0099C230.436 33.6298 230.19 35.1792 229.697 36.6582L219.981 68.2456C219.77 69.0907 219.664 69.8302 219.664 70.4641C219.664 71.3797 219.84 72.1192 220.192 72.6826C220.544 73.1756 221.037 73.6686 221.671 74.1616C222.164 74.6546 222.516 75.0772 222.727 75.4293C222.938 75.7111 222.973 76.0984 222.833 76.5914C222.48 77.507 221.776 78.1761 220.72 78.5986C219.664 79.0212 218.045 79.2325 215.862 79.2325H191.784C189.953 79.2325 188.615 78.9508 187.77 78.3874C186.926 77.7535 186.644 76.9436 186.925 75.9576C187.207 75.1124 187.946 74.3729 189.143 73.739C190.199 73.1756 191.079 72.5065 191.784 71.7318C192.488 70.9571 193.086 69.7246 193.579 68.0343L202.767 37.5034C202.978 36.8695 203.084 36.3413 203.084 35.9187C203.084 35.144 202.908 34.5454 202.556 34.1228C202.204 33.6298 201.676 33.1368 200.971 32.6438C200.267 32.0804 199.775 31.5874 199.493 31.1648C199.211 30.7422 199.176 30.1788 199.387 29.4745C199.81 27.8546 202.028 26.4461 206.041 25.2488C210.054 23.981 214.243 23.3472 218.608 23.3472ZM225.684 0C228.43 0 230.718 0.915576 232.549 2.74673C234.379 4.50745 235.294 6.69074 235.294 9.29661C235.294 11.1278 234.802 12.9237 233.816 14.6844C232.901 16.4451 231.563 17.8889 229.803 19.0158C228.113 20.0722 226.212 20.6005 224.1 20.6005C221.424 20.6005 219.171 19.7201 217.341 17.9594C215.581 16.1282 214.665 13.8745 214.595 11.1982C214.595 9.43747 215.053 7.71197 215.968 6.02167C216.883 4.26095 218.186 2.81716 219.875 1.6903C221.565 0.563432 223.501 0 225.684 0Z" fill="#92B8F0"/>
<path d="M280.94 24.7205C282.277 24.7205 283.298 25.0023 284.002 25.5657C284.777 26.1291 285.164 26.9038 285.164 27.8898C285.164 28.1716 285.094 28.6646 284.953 29.3688C284.038 32.4677 281.925 34.0172 278.616 34.0172H272.491L264.57 60.1111C264.218 61.1675 264.042 62.2591 264.042 63.386C264.042 64.6537 264.394 65.5341 265.098 66.0271C265.802 66.5201 266.788 66.7666 268.055 66.7666C269.182 66.7666 270.59 66.6257 272.28 66.344C273.125 66.1327 273.864 66.0271 274.498 66.0271C274.99 66.0271 275.342 66.2032 275.554 66.5553C275.835 66.837 275.976 67.2244 275.976 67.7174C276.047 69.126 274.99 70.8515 272.808 72.8939C270.696 74.8659 267.809 76.5914 264.148 78.0704C260.487 79.479 256.438 80.1833 252.003 80.1833C247.215 80.1833 243.378 79.0916 240.492 76.9084C237.605 74.7251 236.162 71.7318 236.162 67.9287C236.162 66.1679 236.443 64.4777 237.006 62.8578L243.765 41.9404C244.117 40.7431 244.293 39.7923 244.293 39.088C244.293 37.6795 243.941 36.4822 243.237 35.4962C242.604 34.5102 241.688 33.4889 240.492 32.4325C239.435 31.4465 238.696 30.6366 238.274 30.0027C237.851 29.2984 237.746 28.4885 237.957 27.5729C238.239 26.6573 238.837 25.953 239.752 25.46C240.668 24.967 242.111 24.7205 244.082 24.7205H249.996L256.65 18.065C258.973 15.7409 261.085 14.121 262.986 13.2054C264.958 12.2898 267.492 11.8321 270.59 11.8321C275.026 11.8321 277.243 13.5224 277.243 16.9029C277.243 17.9594 277.103 18.9454 276.821 19.8609L275.342 24.7205H280.94Z" fill="#92B8F0"/>
<path d="M319.137 22.819C328.079 22.819 334.556 24.2628 338.569 27.1503C342.582 29.9675 344.589 33.5946 344.589 38.0316C344.589 39.3698 344.448 40.6023 344.166 41.7291C343.11 46.3774 340.153 49.7228 335.295 51.7652C330.508 53.7372 324.84 54.7232 318.292 54.7232C314.983 54.7232 311.885 54.512 308.999 54.0894C308.928 57.7517 309.914 60.3223 311.956 61.8014C313.997 63.2804 316.849 64.0199 320.51 64.0199C322.2 64.0199 323.819 63.8438 325.368 63.4916C326.917 63.0691 328.888 62.4704 331.282 61.6957C333.253 60.9914 334.591 60.6393 335.295 60.6393C336.07 60.6393 336.457 61.0971 336.457 62.0126C336.527 64.4777 335.612 67.0835 333.711 69.8302C331.81 72.5065 328.994 74.7955 325.262 76.6971C321.531 78.5986 317.025 79.5494 311.744 79.5494C303.929 79.5494 297.522 77.5774 292.524 73.6334C287.525 69.6894 285.025 63.9494 285.025 56.4135C285.025 54.3007 285.307 51.8357 285.87 49.0185C287.63 40.3558 291.468 33.8411 297.382 29.4745C303.366 25.0375 310.618 22.819 319.137 22.819ZM309.738 47.7508C310.02 47.8212 310.407 47.8564 310.9 47.8564C313.857 47.8564 316.11 46.4831 317.659 43.7363C319.208 40.9896 319.947 37.926 319.876 34.5454C319.806 32.5734 319.243 31.5874 318.187 31.5874C317.412 31.5874 316.497 32.2212 315.441 33.4889C314.385 34.6862 313.329 36.5174 312.273 38.9824C311.287 41.4474 310.442 44.3702 309.738 47.7508Z" fill="#92B8F0"/>
<path d="M432.536 51.9765C434.508 51.9765 435.986 52.3991 436.972 53.2442C438.028 54.019 438.556 55.1458 438.556 56.6248C438.556 57.2587 438.45 57.963 438.239 58.7377L434.754 71.098C433.839 74.1264 432.536 76.2393 430.847 77.4366C429.227 78.6339 426.798 79.2325 423.56 79.2325H373.923C372.445 79.2325 371.318 78.986 370.544 78.493C369.699 78 369.277 77.3309 369.277 76.4858C369.277 76.0632 369.382 75.6054 369.593 75.1124C369.805 74.549 370.157 74.0912 370.65 73.739C371.142 73.3165 371.67 72.9291 372.234 72.577C373.36 71.8727 374.275 71.1684 374.979 70.4641C375.684 69.6894 376.282 68.4569 376.775 66.7666L389.659 21.2343C389.941 20.3187 390.082 19.4384 390.082 18.5932C390.082 17.8185 389.941 17.1847 389.659 16.6917C389.448 16.1282 389.131 15.4944 388.709 14.7901C388.075 13.8745 387.758 13.135 387.758 12.5716C387.758 12.3603 387.829 11.9729 387.969 11.4095C388.251 10.4939 388.849 9.86005 389.765 9.5079C390.75 9.08533 392.229 8.87405 394.2 8.87405H419.018C420.497 8.87405 421.623 9.12055 422.398 9.61355C423.243 10.0361 423.665 10.67 423.665 11.5151C423.665 11.8673 423.56 12.3251 423.348 12.8885C423.137 13.3815 422.82 13.8393 422.398 14.2619C422.046 14.614 421.694 14.8957 421.342 15.107C421.06 15.2479 420.849 15.3887 420.708 15.5296C419.582 16.1634 418.666 16.8677 417.962 17.6424C417.258 18.4172 416.66 19.6144 416.167 21.2343L402.543 69.0907H409.091C410.71 69.0907 412.083 68.809 413.21 68.2456C414.407 67.6822 415.639 66.6257 416.906 65.0763L424.193 56.4135C425.531 54.8641 426.798 53.7372 427.995 53.033C429.262 52.3287 430.776 51.9765 432.536 51.9765Z" fill="#92B8F0"/>
<path d="M482.739 23.3472C490.836 23.3472 497.313 24.8614 502.171 27.8898C507.029 30.8479 509.458 35.3905 509.458 41.5178C509.458 43.842 509.036 46.4831 508.191 49.4411L503.861 64.0199C503.791 64.3016 503.756 64.6537 503.756 65.0763C503.756 66.2032 504.213 66.7666 505.128 66.7666C505.973 66.7666 506.677 66.4144 507.241 65.7102C507.874 64.9354 508.297 64.5481 508.508 64.5481C508.86 64.5481 509.142 64.7946 509.353 65.2876C509.634 65.7806 509.775 66.344 509.775 66.9779C509.846 68.8795 509.106 70.8163 507.557 72.7883C506.079 74.7603 504.072 76.3801 501.538 77.6479C499.003 78.9156 496.222 79.5494 493.195 79.5494C489.534 79.5494 486.4 78.8804 483.795 77.5422C481.19 76.2041 479.395 74.2321 478.409 71.6262C476.297 74.1616 473.798 76.1336 470.911 77.5422C468.025 78.8804 464.927 79.5494 461.618 79.5494C457.886 79.5494 454.753 78.8451 452.218 77.4366C449.684 75.9576 447.783 74.0912 446.515 71.8375C445.319 69.5133 444.72 67.0835 444.72 64.5481C444.72 63.4212 444.826 62.3296 445.037 61.2731C446.163 56.4135 448.592 52.7512 452.324 50.2862C456.126 47.8212 460.632 46.5887 465.842 46.5887C471.686 46.5887 477.424 47.5043 483.056 49.3354L485.696 42.363C486.612 39.405 487.069 37.116 487.069 35.4962C486.999 33.8059 486.436 32.5381 485.38 31.693C484.323 30.8479 482.704 30.4253 480.522 30.4253C480.944 31.5521 481.155 32.7142 481.155 33.9115C481.155 36.5174 480.17 38.7711 478.198 40.6727C476.227 42.5743 473.411 43.5251 469.749 43.5251C466.3 43.5251 463.589 42.7856 461.618 41.3065C459.717 39.7571 458.766 37.8555 458.766 35.6018C458.766 32.0804 460.737 29.1576 464.68 26.8334C468.623 24.5093 474.643 23.3472 482.739 23.3472ZM476.825 55.3571C474.854 55.3571 473.235 56.1318 471.967 57.6813C470.77 59.1603 470.172 60.7801 470.172 62.5409C470.172 63.6677 470.418 64.5833 470.911 65.2876C471.474 65.9919 472.249 66.344 473.235 66.344C474.15 66.344 475.136 65.9919 476.192 65.2876C477.318 64.5129 478.128 63.386 478.621 61.907L480.838 55.674C479.642 55.4628 478.304 55.3571 476.825 55.3571Z" fill="#92B8F0"/>
<path d="M572.221 22.9246C577.432 22.9246 581.585 24.791 584.683 28.5237C587.852 32.2564 589.436 37.1865 589.436 43.3138C589.436 46.4831 589.049 49.5819 588.274 52.6104C586.021 61.6957 582.149 68.5625 576.657 73.2108C571.236 77.8591 564.97 80.1833 557.859 80.1833C553.846 80.1833 550.36 79.5142 547.403 78.1761C544.517 76.7675 542.193 74.7955 540.433 72.26L536.631 75.535C535.153 76.8027 533.709 77.7535 532.301 78.3874C530.893 78.9508 529.274 79.2325 527.443 79.2325H522.796C521.036 79.2325 519.663 78.8804 518.678 78.1761C517.762 77.4014 517.305 76.3097 517.305 74.9011C517.305 74.2673 517.41 73.5278 517.622 72.6826L535.258 15.3183C535.47 14.6844 535.575 14.1562 535.575 13.7336C535.575 12.5363 534.836 11.4095 533.357 10.3531C532.653 9.71919 532.16 9.22619 531.879 8.87405C531.597 8.45147 531.562 7.92325 531.773 7.28939C532.266 5.66953 534.484 4.26095 538.427 3.06366C542.44 1.79594 546.629 1.16208 550.994 1.16208C555.078 1.16208 558.07 1.97201 559.971 3.59188C561.942 5.14131 562.928 7.25418 562.928 9.93048C562.928 11.4095 562.681 12.8885 562.189 14.3675L557.753 28.735C561.837 24.8614 566.659 22.9246 572.221 22.9246ZM560.288 51.9765C561.696 47.1874 562.4 43.3138 562.4 40.3558C562.4 37.116 561.449 35.4962 559.548 35.4962C557.859 35.4962 556.275 36.3765 554.796 38.1372L547.931 60.5336L547.298 62.5409C546.946 63.5973 546.77 64.6889 546.77 65.8158C546.77 68.2808 547.931 69.5133 550.255 69.5133C551.945 69.5133 553.564 68.2808 555.113 65.8158C556.662 63.3508 558.387 58.7377 560.288 51.9765Z" fill="#92B8F0"/>
<path d="M629.858 22.819C638.8 22.819 645.277 24.2628 649.29 27.1503C653.303 29.9675 655.31 33.5946 655.31 38.0316C655.31 39.3698 655.169 40.6023 654.888 41.7291C653.832 46.3774 650.875 49.7228 646.017 51.7652C641.229 53.7372 635.561 54.7232 629.013 54.7232C625.704 54.7232 622.606 54.512 619.72 54.0894C619.649 57.7517 620.635 60.3223 622.677 61.8014C624.719 63.2804 627.57 64.0199 631.231 64.0199C632.921 64.0199 634.54 63.8438 636.089 63.4916C637.638 63.0691 639.61 62.4704 642.003 61.6957C643.975 60.9914 645.312 60.6393 646.017 60.6393C646.791 60.6393 647.178 61.0971 647.178 62.0126C647.249 64.4777 646.333 67.0835 644.432 69.8302C642.531 72.5065 639.715 74.7955 635.984 76.6971C632.252 78.5986 627.746 79.5494 622.466 79.5494C614.651 79.5494 608.244 77.5774 603.245 73.6334C598.246 69.6894 595.747 63.9494 595.747 56.4135C595.747 54.3007 596.028 51.8357 596.592 49.0185C598.352 40.3558 602.189 33.8411 608.103 29.4745C614.087 25.0375 621.339 22.819 629.858 22.819ZM620.459 47.7508C620.741 47.8212 621.128 47.8564 621.621 47.8564C624.578 47.8564 626.831 46.4831 628.38 43.7363C629.929 40.9896 630.668 37.926 630.598 34.5454C630.527 32.5734 629.964 31.5874 628.908 31.5874C628.133 31.5874 627.218 32.2212 626.162 33.4889C625.106 34.6862 624.05 36.5174 622.994 38.9824C622.008 41.4474 621.163 44.3702 620.459 47.7508Z" fill="#92B8F0"/>
<path d="M691.066 1.16208C695.15 1.16208 698.142 1.9368 700.043 3.48624C702.014 5.03567 703 7.14853 703 9.82484C703 11.3743 702.754 12.8885 702.261 14.3675L685.68 68.2456C685.469 69.0907 685.363 69.8302 685.363 70.4641C685.363 71.3797 685.539 72.1192 685.891 72.6826C686.243 73.1756 686.736 73.6686 687.37 74.1616C687.863 74.6546 688.215 75.0772 688.426 75.4293C688.637 75.7111 688.672 76.0984 688.532 76.5914C688.179 77.507 687.475 78.1761 686.419 78.5986C685.363 79.0212 683.744 79.2325 681.561 79.2325H657.482C655.652 79.2325 654.314 78.9508 653.469 78.3874C652.624 77.7535 652.343 76.9436 652.625 75.9576C652.906 75.1124 653.645 74.3729 654.842 73.739C655.898 73.1756 656.778 72.5065 657.482 71.7318C658.187 70.9571 658.785 69.7246 659.278 68.0343L675.33 15.3183C675.542 14.6844 675.647 14.1562 675.647 13.7336C675.647 12.9589 675.436 12.3251 675.014 11.8321C674.662 11.3391 674.169 10.8461 673.535 10.3531C672.831 9.78962 672.303 9.29662 671.951 8.87405C671.669 8.45147 671.634 7.88804 671.845 7.18375C672.268 5.56388 674.486 4.15531 678.499 2.95801C682.512 1.76072 686.701 1.16208 691.066 1.16208Z" fill="#92B8F0"/>
<path d="M233.692 299.323L247.069 247.91H255.588L268.895 299.323H262.488L259.109 285.66H243.549L240.169 299.323H233.692ZM244.816 280.307H257.771L253.828 264.46C253.077 261.456 252.49 258.944 252.068 256.925C251.645 254.906 251.387 253.591 251.293 252.981C251.2 253.591 250.941 254.906 250.519 256.925C250.097 258.944 249.51 261.432 248.759 264.39L244.816 280.307Z" fill="#92B8F0"/>
<path d="M281.681 312V260.587H288.018V267.982H289.285L288.018 269.461C288.018 266.503 288.98 264.179 290.905 262.488C292.876 260.751 295.457 259.883 298.649 259.883C302.545 259.883 305.643 261.174 307.943 263.756C310.29 266.292 311.463 269.79 311.463 274.25V285.589C311.463 288.547 310.923 291.106 309.844 293.266C308.811 295.426 307.333 297.093 305.408 298.266C303.531 299.44 301.278 300.027 298.649 300.027C295.504 300.027 292.946 299.158 290.975 297.421C289.004 295.684 288.018 293.36 288.018 290.449L289.285 291.928H287.877L288.018 300.731V312H281.681ZM296.537 294.534C299.212 294.534 301.301 293.735 302.803 292.139C304.352 290.543 305.127 288.242 305.127 285.237V274.673C305.127 271.668 304.352 269.367 302.803 267.771C301.301 266.174 299.212 265.376 296.537 265.376C293.955 265.376 291.89 266.198 290.341 267.841C288.792 269.484 288.018 271.762 288.018 274.673V285.237C288.018 288.148 288.792 290.425 290.341 292.069C291.89 293.712 293.955 294.534 296.537 294.534Z" fill="#92B8F0"/>
<path d="M326.714 312V260.587H333.05V267.982H334.317L333.05 269.461C333.05 266.503 334.012 264.179 335.937 262.488C337.908 260.751 340.49 259.883 343.681 259.883C347.577 259.883 350.675 261.174 352.975 263.756C355.322 266.292 356.495 269.79 356.495 274.25V285.589C356.495 288.547 355.956 291.106 354.876 293.266C353.843 295.426 352.365 297.093 350.44 298.266C348.563 299.44 346.31 300.027 343.681 300.027C340.537 300.027 337.979 299.158 336.007 297.421C334.036 295.684 333.05 293.36 333.05 290.449L334.317 291.928H332.909L333.05 300.731V312H326.714ZM341.569 294.534C344.245 294.534 346.333 293.735 347.835 292.139C349.384 290.543 350.159 288.242 350.159 285.237V274.673C350.159 271.668 349.384 269.367 347.835 267.771C346.333 266.174 344.245 265.376 341.569 265.376C338.988 265.376 336.922 266.198 335.374 267.841C333.825 269.484 333.05 271.762 333.05 274.673V285.237C333.05 288.148 333.825 290.425 335.374 292.069C336.922 293.712 338.988 294.534 341.569 294.534Z" fill="#92B8F0"/>
<path d="M416.778 299.323V292.843L432.479 276.152C435.154 273.288 437.102 270.752 438.322 268.545C439.543 266.292 440.153 264.132 440.153 262.066C440.153 259.202 439.355 256.948 437.759 255.305C436.21 253.661 434.075 252.84 431.352 252.84C428.348 252.84 425.978 253.685 424.241 255.375C422.551 257.065 421.707 259.39 421.707 262.348H415.37C415.464 259.249 416.168 256.572 417.482 254.319C418.843 252.018 420.697 250.257 423.044 249.037C425.438 247.816 428.207 247.205 431.352 247.205C434.45 247.205 437.126 247.816 439.379 249.037C441.678 250.21 443.439 251.901 444.659 254.107C445.879 256.314 446.49 258.944 446.49 261.995C446.49 264.907 445.715 267.794 444.166 270.658C442.617 273.522 440.083 276.786 436.562 280.448L423.889 293.548H447.334V299.323H416.778Z" fill="#92B8F0"/>
</svg>
